<?xml version="1.0" encoding="utf-8"?>
<!-- Generator: Adobe Illustrator 21.0.2, SVG Export Plug-In . SVG Version: 6.00 Build 0)  -->
<svg version="1.1" id="Layer_1" xmlns="http://www.w3.org/2000/svg" xmlns:xlink="http://www.w3.org/1999/xlink" x="0px" y="0px"
	 viewBox="0 0 300 600" style="enable-background:new 0 0 300 600;" xml:space="preserve">
<style type="text/css">
	.st0{fill-rule:evenodd;clip-rule:evenodd;fill:#FFFFFF;}
	.st1{fill-rule:evenodd;clip-rule:evenodd;}
</style>
<g>
	<path class="st0" d="M237.3,400.7c0-0.6,0-1.2,0-1.8c0-0.5-0.5-0.5-0.9-0.2c-0.6,0.4-0.6,1.4-0.8,2.1
		C236.2,400.7,236.8,400.7,237.3,400.7C237.3,399.9,236.8,400.7,237.3,400.7z"/>
	<path class="st0" d="M218,254.5c-0.8,0.5-1.8,0.8-1.7,2.2C218.3,257.1,218.8,255.3,218,254.5z"/>
	<path class="st0" d="M218,234c-0.6-1.8-0.1-4.7-2.2-5C216,231.2,216,233.6,218,234z"/>
	<path class="st0" d="M216.9,257.8c-1.1,1.8-1.6,3.4-2.2,6.6C216.3,262.8,217.7,260.5,216.9,257.8z"/>
	<path class="st0" d="M216.9,376.9c-0.8-0.7-1.4-1.5-1.5-2.6c-0.1-0.5,0-1-0.6-0.6c-0.3,0.2-0.5,0.5-0.6,0.9
		c-0.2,0.8-0.1,1.7,0.2,2.4C214.9,378.1,216.1,377,216.9,376.9C215.5,375.6,216.1,377,216.9,376.9z"/>
	<path class="st0" d="M212.5,411.7c-3.5,2.8-4.8,7.7-6.6,12.2C209.1,420.9,210.9,416.4,212.5,411.7z"/>
	<path class="st0" d="M207.5,409.5c-2.4,2.8-4.7,5.7-6.1,9.4C203.8,416.2,206.7,413.9,207.5,409.5z"/>
	<path class="st0" d="M205.8,363c-1.2-2.5-2.3-5.1-5.5-5.5C201.3,360.1,203.3,361.9,205.8,363z"/>
	<path class="st0" d="M200.9,217.4c0.4,2.4-0.7,5.1,0,6.1C201.5,222.6,203.3,217.8,200.9,217.4z"/>
	<path class="st0" d="M195.9,355.8c-0.3-2.3-2.5-2.7-4.4-3.3C192.1,354.5,193.8,355.3,195.9,355.8z"/>
	<path class="st0" d="M195.9,233.5c-1.5-0.2-1.8,0.8-1.7,2.2C195.7,235.9,196,234.9,195.9,233.5z"/>
	<path class="st0" d="M194.2,207.4c-0.6-1.6-2.4-2.1-4.4-2.2C190.6,206.7,192.7,206.8,194.2,207.4z"/>
	<path class="st0" d="M192.6,437.2c-6.3,4.5-14,5.5-19.3,10C181,445.2,188.4,442.8,192.6,437.2z"/>
	<path class="st1" d="M188.7,399c-1.2,1-3.8,0.7-3.3,3.3C186.8,401.5,188.5,401,188.7,399z"/>
	<path class="st0" d="M188.1,292.2c-0.9-2.5-3.4-3.3-5-5C182.4,288.8,186.1,293.3,188.1,292.2z"/>
	<path class="st0" d="M188.1,205.8c0.1-1-0.4-1.6-1.5-1.7c-0.3,0-0.5,0-0.8,0c0,0.4,0,0.9,0,1.3c0,0.5,0.3,0.3,0.7,0.3
		C187.2,205.8,187.7,205.8,188.1,205.8C188.3,204.3,187.4,205.8,188.1,205.8z"/>
	<path class="st0" d="M187,350.3c-0.8-2.7-4.1-5.3-6.1-5C182.3,347.7,184.8,348.8,187,350.3z"/>
	<path class="st0" d="M178.7,343.6c-3.2-3.7-8.3-8.2-12.7-8.9C169.8,338.2,173.6,341.6,178.7,343.6z"/>
	<path class="st0" d="M174.3,329.2c0.2-1.5-0.8-1.8-2.2-1.7C171.9,329,172.9,329.4,174.3,329.2z"/>
	<path class="st0" d="M174.3,41.9c-1.8,0.3-2.5,2.8-4.4,1.7c-0.1,0.5-0.1,1.3,0.6,1.4c0.3,0,1-0.2,1,0.3
		C172.3,43.8,174.3,43.8,174.3,41.9C172.3,42.3,174.3,44,174.3,41.9z"/>
	<path class="st0" d="M171.6,195.8c-4.2-2.5-13.4-2.9-15.5-0.6C161.5,195.9,165.9,194.9,171.6,195.8z"/>
	<path class="st0" d="M170.5,326.5c0-0.3,0-0.7,0-1c0-0.7,0-0.7-0.7-0.7c-0.4,0-0.7,0-1.1,0c-0.5,0-0.5,0.3-0.5,0.8
		C168.1,326.8,169.7,326.6,170.5,326.5C170.5,325.9,169,326.6,170.5,326.5z"/>
	<path class="st0" d="M168.2,44.7c-0.4,0.1-0.6,0.6-0.8,0.9c-0.3,0.5-0.9,0.4-1.4,0.2c0,0.6,0,1.1,0,1.7
		C167.1,47.3,169.5,46,168.2,44.7C167.4,44.9,169.3,45.8,168.2,44.7z"/>
	<path class="st0" d="M161.1,331.5c-0.2,1.5,2.1,0.4,1.7,2.2C165.2,333.2,162.4,329.7,161.1,331.5z"/>
	<path class="st1" d="M163.3,351.4c-0.2-2.6-0.2-2.3,0-5C161.5,345.9,161.5,351.9,163.3,351.4z"/>
	<path class="st0" d="M157.7,450.5c0-1.7-4.7-1.5-5.5-0.6C152.1,452.1,157,451,157.7,450.5z"/>
	<path class="st0" d="M156.6,316.5c-0.4-3.8-7.1-6.1-12.2-7.2C147.3,312.9,153.1,313.6,156.6,316.5z"/>
	<path class="st1" d="M148.6,177.9c-0.7,1.1-2.2,2.2-2,3.5c0.1,0.5,0.4,1,0.5,1.5c0.1,0.4,0.2,0.6-0.1,0.8c-0.3,0.2-0.6,0.4-0.8,0.6
		c-2.1,1.9-2.5,5-4.5,7c0.7,0.3,1.2,1,2,1.2c0.6,0.1,1.3,0.2,1.5-0.4c0.3-0.9,0.6-1.7,0.8-2.6c1-3.2,2.2-6.3,3.3-9.4
		c2.2-6,4.6-12,6.8-18.1"/>
	<path class="st0" d="M155,393.5c-1.1-1.3-5.5-1.6-7.2-0.6C149.6,394.6,152.5,394.1,155,393.5z"/>
	<path class="st0" d="M152.8,324.3c-0.7-2.9-3.7-3.7-6.1-5C145.6,322.1,150.4,323.2,152.8,324.3z"/>
	<path class="st0" d="M150,262.3c-0.7-1.7-4.2-2.8-5.5-2.2C145,262.1,147.5,262.1,150,262.3z"/>
	<path class="st0" d="M149.4,271.1c-1.7-3.3-8.2-4.7-11.1-5C141.1,268.7,145.4,269.9,149.4,271.1z"/>
	<path class="st0" d="M148.3,280.5c-1.7,1.1-2.5,3.7-5,2.2c0.4,1.3,0.4,2.1,0,3.3C145.3,285.4,149.1,283.1,148.3,280.5
		C146.8,281.6,149,282.7,148.3,280.5z"/>
	<path class="st0" d="M143.4,393.5c-0.2-1.7-3.5-1.9-4.4-1.1C139.1,394.1,141.7,393.3,143.4,393.5z"/>
	<path class="st0" d="M137.3,392.4c-2.2-2.3-7.1-2.8-8.8-2.8C130.3,391.6,133.9,391.9,137.3,392.4z"/>
	<path class="st0" d="M135.1,313.2c-0.4-2.2-2.8-2.4-4.4-3.3C130.5,312.6,132.9,312.8,135.1,313.2z"/>
	<path class="st0" d="M130.1,437.8c0.5-0.1,0.5-0.8,0.5-1.2c0-0.4,0.2-0.4-0.3-0.5c-0.4-0.1-0.8-0.2-1.2-0.3
		c-1.3-0.5-2.5-1.4-3.4-2.4C123.9,435.9,128.8,436.8,130.1,437.8C130.7,437.7,128.6,436.7,130.1,437.8z"/>
	<path class="st1" d="M129.5,179.8c0.9-4.2-2.1-8.3-2.8-13.8C125.7,169.5,128.4,175.2,129.5,179.8z"/>
	<path class="st0" d="M125.7,148.2c-1.5-0.2-1.8,0.8-1.7,2.2C125.5,150.6,125.8,149.7,125.7,148.2z"/>
	<path class="st0" d="M121.3,377.4c0-0.6,0-1.1,0-1.7c-0.6,0.3-1.2,0.2-1.8,0.2c-0.8,0-0.9,0.8-0.9,1.4
		C119.4,377.4,120.3,377.4,121.3,377.4C121.3,376.9,120.3,377.4,121.3,377.4z"/>
	<path class="st1" d="M120.7,182.5c-6.7-3.7-12.1-11.4-20.5-11.6C107.8,174,112.9,179.6,120.7,182.5z"/>
	<path class="st0" d="M113.5,435c1.4-0.7-0.6-2.7-2.2-2.2C111.5,434.1,113,434,113.5,435z"/>
	<path class="st0" d="M110.8,432.2c-0.1-1.4-0.8-2.1-2.2-2.2C108.6,431.4,109.3,432.2,110.8,432.2z"/>
	<path class="st0" d="M110.2,387.9c0-0.6,0-1.1,0-1.7c-1.3,0.3-2.1-0.9-3.3-0.6C107.6,386.9,108.8,387.6,110.2,387.9
		C110.2,387.4,108.7,387.6,110.2,387.9z"/>
	<path class="st0" d="M104.7,329.8c0.5,2-1,2.9,0,3.9C105,333,107,329.6,104.7,329.8z"/>
	<path class="st0" d="M98,232.9c-0.7,0.2-1.1,0.7-1.6,1.1c-0.6,0.6-1.5,0.2-2.2,0c-0.8,2.4,3.3,0,3.3,1.7
		C98.9,235.6,98.8,233.7,98,232.9C96,233.6,98.8,233.6,98,232.9z"/>
	<path class="st0" d="M96.9,383.5c-1-3.3-4.8,4.7-1.1,4.4C96,386.3,95.2,383.6,96.9,383.5z"/>
	<path class="st0" d="M89.7,281.1c-1.5,1.7,1.9,1.7,1.7,3.9C93.6,284.3,91.4,281.2,89.7,281.1z"/>
	<path class="st0" d="M89.7,343.6c-3,2.6,0.5,7.4-1.1,10.5c0.8,0.3,1.4,0.9,1.7,1.7c0.4-0.5,0.4-1.3,0.4-1.9c0-1.1-0.1-2.2-0.2-3.3
		C90.2,348.3,89.8,346,89.7,343.6C87,346,89.8,347.3,89.7,343.6z"/>
	<path class="st1" d="M90.8,138.8c0-1.4-2.6,0.2-3,0.5c-1.3,0.7-2.6,1.6-3.8,2.4c-2.5,1.8-4.9,3.8-7.1,5.8c-1.1,1-2.2,2-3.2,3
		c-0.5,0.5-1,0.9-1.5,1.4c-0.6,0.6-1.1,0.8-1.8,1.1c-2.3,1-4.1,2.7-5,5.1C74.1,152,82.3,145.1,90.8,138.8
		C90.8,138.3,82.3,145.1,90.8,138.8z"/>
	<path class="st0" d="M89.7,280.5c0.1-1.4,0.1-2.7-0.6-3.3C88.3,277.2,88,281.3,89.7,280.5z"/>
	<path class="st0" d="M85.9,273.9c-0.2-2.1,0.3-4.7-2.2-4.4C82.6,271,84.6,273,85.9,273.9z"/>
	<path class="st0" d="M82,191.4c0-2.2,0-4.4,0-6.6C80.2,185.6,79.6,191,82,191.4z"/>
	<path class="st1" d="M67.1,133.3c-1,0.4-2.2,0.7-2.8,1.7C65.1,136.4,67.3,134.7,67.1,133.3z"/>
	<path class="st1" d="M64.9,158.2c-1.8,0.2-2.4,1.6-3.9,2.2C61.8,161.4,65.1,160.1,64.9,158.2z"/>
	<path class="st1" d="M63.2,139.9c-1.1,1.3-4.1,3.6-3.3,5C61.3,143.6,62.9,142.4,63.2,139.9z"/>
	<path class="st1" d="M275,319.9c0.4-0.3,0.6-0.6,0.8-1.1c0.1-0.5,0.3-1.1,0.4-1.6c0.3-1.2,0.7-2.3,1-3.5c0.7-2.2,1.4-4.3,2.2-6.5
		c1.5-4.2,3-8.4,4.4-12.7c3.1-9.5,4.9-19.3,4.7-29.3c0-1.4-0.1-2.9-0.2-4.3c0-0.5,0.1-1.8-0.4-1.9c-0.5-0.1-1-0.2-1.6-0.2
		c-1.6,0-2.9,0.7-3.9,1.9c-2.1,2.4-2.7,5.9-5.1,8.2c-0.1,0.1-0.2,0.2-0.2,0.2c-0.7-3.4-1.2-7-1.2-10.5c0-1.7,0.1-3.4,0.3-5.1
		c0.1-0.9,0.2-1.8,0.4-2.7c-0.5-0.3-1-0.6-1.7-0.6c1.9-7.4-0.1-15.8-2.9-22.7c-0.3-0.7-0.6-1.5-1-2.2c-0.7-0.1-1.2-0.4-1.8-0.8
		c-0.5-0.3-1.1-0.5-1.8-0.5c-0.2,0-0.4,0-0.6,0.1c-0.5,0.1-0.4,0.4-0.5,0.8c-0.1,0.6-0.2,1.2-0.4,1.9c-0.9,4.5-1.8,9.1-3.4,13.5
		c-3.8-10.3-8.4-20.1-12.7-30.2c-1.1-2.5-2.1-5.1-3.1-7.6c-0.5-1.3-1-2.6-1.5-3.9c-0.1-0.2-0.2-0.5-0.3-0.7
		c-0.1-0.4-0.1-0.7-0.5-0.6c-0.4,0.1-0.8,0-1.1-0.2c-0.2-0.1-0.4-0.3-0.7-0.4c-0.7-0.2-0.8,0.3-1,0.8c-0.4,0.9-0.7,1.9-1,2.9
		c-0.5,2.2-0.8,4.5-1.4,6.7c-5.7-8.2-9.9-17.3-14.2-26.2c-2.1-4.4-4.1-8.8-6.3-13.1c-0.2-0.5-0.5-0.9-0.7-1.4
		c-0.1-0.3-0.3-0.5-0.4-0.8c-0.3,0.1-0.6,0.2-0.9,0.3c-0.9,0.3-1.8,0.9-2.6,1.5c-1.6,1.3-2.7,3-4.3,4.3c-5.9-9.2-8.8-20-11.9-30.3
		c-0.8-2.7-1.7-5.3-2.6-8c-0.4-1.3-0.9-2.5-1.3-3.7c-0.2-0.6-0.5-1.2-0.7-1.8c-0.1-0.3-0.2-0.6-0.4-0.9c-0.2-0.6-0.2-0.6-0.8-0.4
		c-4.2,1.4-5.8,6.1-10,7.6c-5.1-6.3-8-14-9.4-21.9c-0.8-4.6-1.2-9.4-1.2-14.1c0-1.2,0-2.3,0-3.5c0-1,0.4-2.5-0.1-3.4
		c-0.7-1.2-2.3,0.1-3.1-0.8c12.6-7.6,25.3-15.3,37-24.4c-5.8-4.9-14.5-4.3-21.6-5c0.3-3.1,6.4,0.6,0,0c0.2-1.6,1-1.1,2-0.5
		c0.3,0.2,0.8,0.5,1.1,0.2c0.8-0.6-0.9-1.8-1.4-2c9.5-8.5,19.5-16.4,29.6-24.1c2.5-1.9,5.1-3.9,7.6-5.8c1.2-0.9,2.5-1.8,3.7-2.8
		c-0.3-1.1-1-1.1-1.9-0.8c-0.5,0.2-0.9,0.4-1-0.2c0-0.3,0-0.6,0.2-0.9c0.3-0.5,1-0.6,1.4-1c0.2-0.2,0.3-0.5,0.3-0.8
		c0-0.7-0.1-0.8-0.7-0.9c-1.3-0.2-2.6-0.3-3.9-0.4c-10.5-1.1-21.3-1.3-31.7,0.3c-5,0.8-9.9,1.9-14.6,3.8c-1.1,0.4-2.1,0.9-3.1,1.4
		c-0.5,0.2-2.3,1.6-2.4,0.6c-0.1-0.6,0.4-1.2,0.5-1.9c0.1-0.7-0.8-1.4-1.4-1.6c-1.5-0.7-3.5-0.2-4.8-1.4c-0.4-0.3-0.3-0.8-0.8-0.7
		c-0.7,0.2-1.3,0.4-2,0.6c-1.4,0.4-2.8,0.9-4.2,1.4c-5.1,1.8-10,4-14.7,6.6c-9,4.9-17.2,11.1-25.3,17.4c-4,3.1-8.1,6.2-12.2,9.1
		c-0.5,0.4-1,0.7-1.5,1.1c-0.6,0.4-0.7,0.8-1,1.5c-0.6,1.2-1.2,2.3-2,3.3c-1.4,2-3,3.8-4.9,5.3c-0.9,0.7-1.9,1.4-2.9,2
		c-0.5,0.3-1,0.6-1.6,0.9c-0.7,0.3-1.2,1.3-1.6,1.9c-1.9,2.5-3.7,5-5.6,7.5c-3.7,5-7.5,9.9-11.4,14.8c-1.4,1.7-2.9,3.4-4.3,5.1
		c-0.7,0.8-1.5,1.7-2.2,2.5c-0.3,0.3-1.1,0.9-0.9,1.3c0.1,0.3,0.2,0.7,0.2,1c0.3,2.4-0.8,4.5-2.2,6.3c-2.7,3.3-7.9,6.9-6.3,11.8
		c-0.9,0.1-1.4-1-1.7,0.3c-0.3,1.1-0.6,2.3-0.9,3.4c-0.6,2-1.7,3.7-3.1,5.3c-0.4,0.5-0.9,0.7-0.7,1.4c0.1,0.4,0.2,0.9,0.2,1.4
		c0.1,1.1,0,2.3-0.2,3.4c-0.3,2.4-1,4.7-1.2,7.1c-0.1,1-0.2,2-0.1,3c0.1,0.6-0.3,1.3-0.5,1.9c-0.2,0.8-0.5,1.5-0.7,2.3
		c-0.8,2.8-1.7,5.6-2.5,8.4c-1.6,5.8-3.2,11.6-4.6,17.4c-6,24.3-10.2,49.1-11,74.1c0,0.6,0,1.2-0.1,1.9c-3-0.7-4.5-3.8-7.2-5
		c-1,7.1-1.4,14.3-0.8,21.5c0.7,7,2.4,13.9,4.6,20.5c-3.6,0.9-7.2-1.2-10.5-2.3c-1.6-0.5-3.3-0.9-4.9-0.5c0.1,2.4,0.5,4.9,1,7.2
		c1,4.6,2.5,9.1,4,13.6c0.3,1,0.7,2.1,1,3.1c0.2,0.6,0.4,1.2,0.5,1.7c0.2,0.5,0.5,0.3,1,0.3c0.7,0,1.5,0.1,1.3,1.1
		c-0.1,0.7-1.2,0.6-1.7,0.6c2.2,4.8,3.6,9.8,5.7,14.6c1,2.3,2.2,4.5,3.8,6.4c0.4,0.4,0.7,0.9,1.1,1.3c0.4,0.4,0.5,0.5,0,0.8
		c-0.5,0.4-1.2,0.2-1.7,0c-1.5-0.6-2.8-1.7-4.4-2.1c-0.8-0.2-1.6-0.1-2.3,0.2c-0.7,0.3-0.5,0.6-0.3,1.3c0.2,0.7,0.5,1.5,0.8,2.2
		c1.8,5.2,4,10.3,6.5,15.3c7.6,15,18,28.5,30.6,39.7c-3.8,0.4-7.8-1.5-11.6,0c-0.9,0.3-1.7,0.9-2.3,1.6c-0.3,1,0.3,1.2,1.1,1.1
		c0.4,0,0.7-0.1,1.1,0c0.3,0.6,0.6,1.1,1,1.7c0.7,1.2,1.5,2.4,2.3,3.5c6,8.7,14.3,15.4,23,21.4c2.2,1.5,4.4,3,6.6,4.5
		c2.2,1.4,4.7,2.8,6.6,4.6c4.1,3.8,9,6.4,13.9,8.9c10.2,5.2,19.7,11.7,30.4,15.8c2.4,0.9,4.8,1.6,7.3,2.1c2,0.4,4.2,0.7,6,1.7
		c0.8,0.5,1.5,1.1,2,1.9c0.4,0.6,0.5,0.9,0.3,1.5c-0.2,0.7-0.4,1.4-0.6,2.1c-0.7,2.4-1.4,4.9-2.3,7.2c-3.1,8.9-7.3,17.5-12.9,25.2
		c-5.1,6.9-11.3,13-18.4,17.7c-1.8,1.2-3.7,2.4-5.7,3.4c-1,0.5-2,1.1-3,1.6c-0.5,0.3-1,0.5-1.5,0.7c-0.5,0.2-0.3,1.4-0.3,1.9
		c0,5.2,1.6,10.2,1.2,15.4c0.5-0.8,1.7-1.6,2.1-0.3c0.1,0.3,0.3,1.3-0.2,1.4c-0.4,0.1-0.8-0.3-1.1-0.4c-0.2-0.1-0.4-0.2-0.7-0.1
		c-0.3,0-0.1,0.9-0.1,1.1c0.1,1,0.2,1.9,0.3,2.9c0.2,1.9,0.4,3.9,0.5,5.8c0.2,3.5,0.3,7-0.3,10.5c-0.3,1.8-0.7,3.5-1.3,5.3
		c-0.3,0.9-0.7,1.8-1,2.7c0.1,0.7,1.2,0.5,1.7,0.6c-0.7,0.7-1.1,1.4-1.1,2.4c0,1.1-0.8,1.6-1.7,2c1,1.4,2.2,2,2.2,3.9
		c10.1-4.5,19.1-10.9,27-18.5c3.9-3.7,7.6-7.6,11.1-11.7c0.4-0.5,0.8-1,1.3-1.5c0.4-0.4,0.7-0.7,0.9,0c0.1,0.5-0.2,2.3,0.7,1.5
		c0.7-0.6,1-2.9-0.4-2.6c-0.1,0-0.1,0-0.2,0c7.5-7.3,14-16.3,18-26c0.5-1.2,0.9-2.3,1.3-3.5c0.2-0.6,0.4-1.2,0.5-1.8
		c0.2-0.6,0.7-1.2,1-1.8c1.3-2.2,2.5-4.4,3.4-6.8c2.1-5,3.6-10.2,4.7-15.5c1.1-5.3,1.9-10.7,2.5-16.1c-0.5,0.3-1,0.6-1.7,0.6
		c3.3-3.5,1.9-9.1,0.9-13.3c-0.3-1.1-0.5-2.2-0.7-3.4c-0.1-0.3-0.1-0.5-0.1-0.8c-0.1-0.4,0.2-0.4,0.6-0.6c0.7-0.4,1.4-0.7,2.2-1.1
		c2.6-1.3,5.1-2.7,7.7-4c10.2-5.3,20.3-10.7,30-16.8c9.1-5.7,17.8-12,25.6-19.4c1.9-1.8,3.8-3.7,5.6-5.7c0.4-0.4,1.1-0.4,1.6-0.6
		c0.5-0.2,1-0.4,1.4-0.7c0.9-0.5,1.6-1.3,2.2-2.1c0.6-0.8,1.1-1.8,1.5-2.7c0.2-0.5,0.4-1,0.6-1.5c0.2-0.5-0.5-0.6-0.9-0.8
		c-1.8-0.8-4.3-1.1-6.2-0.6c-0.1-0.9,0.6-1.2,0.6-2c0-0.3,0-0.5-0.1-0.8c0.3-0.2,0.6-0.3,0.8-0.5c0.5-0.4,1.1-0.7,1.6-1.1
		c2.1-1.6,4-3.3,5.8-5.2c3.7-3.8,7.1-8,10.9-11.8c2.3-2.3,6.7-3.9,6.5-7.8c0-0.3,0-0.5-0.1-0.8c-0.1-0.4,0-0.6-0.5-0.5
		c-0.7,0-1.4,0.1-2.1,0.1c-1.3,0.1-2.5,0.4-3.8,0.7c-2.4,0.7-4.6,1.6-7,2.4c0-1.8,0.6-3.4,1.6-4.8c0.9-1.3,2.1-2.4,3-3.8
		c0.4-0.8,0.8-1.6,0.9-2.4c0.8-0.9,1.6-1.9,2.4-2.8c1.6-2,3.2-4,4.7-6.1c3-4.2,5.8-8.5,8.4-13c1.2-2,2.3-4.1,3.4-6.2
		c0.6-1.3,2.8-1,2.8-2.8c-1,0.4-1.2-0.3-0.7-1.1c0.4-0.7,1.5-1.8,2.3-1.1c-0.5-2.8,0.7-5.3,2.2-7.6c1.6-2.4,3.2-4.9,3.3-7.9
		c-0.9,0.1-1.2-0.6-2-0.7c-0.7-0.1-1,0.4-1.5,0.9c-0.6,0.6-1.1,1.1-1.7,1.7c-2.1,2-4.4,3.7-6.8,5.4c-1.2,0.8-2.3,1.6-3.5,2.3
		c-0.3,0.2-0.5,0.5-0.8,0.2c-0.1-0.1-0.2-0.3-0.3-0.5c-0.1-0.4,0-0.8,0.2-1.1 M272.5,316.3c-0.4,0.7-0.9,1.4-1.3,2.2
		c-0.8,1.4-1.5,2.7-2.3,4.1c-0.7,1.4-1.4,2.8-2.1,4.3c-0.3,0.7-0.6,1.3-0.9,2c-0.3,0.6-0.6,1.9-1.2,2.2c-4.7,2.1-7.5,6.8-11.9,9.3
		c0.7-0.1,1.6-0.3,1.3,0.6c-0.1,0.3-0.2,0.6,0,0.8c0.5,0.5,1.1-0.6,1.5-0.9c2.4-2.4,5-4.4,7.8-6.3c5.7-3.9,11.9-7,17.7-10.9
		c-0.7,2.7-1.9,5.1-3.2,7.5c-0.6,1.1-1.3,2.1-2,3.2c-0.3,0.5-2.2,2.9-1.8,3.4c0.7,0.8,1.5,1.4,1.5,2.6c-0.9,0.3-1.4,0-2-0.6
		c-0.2-0.2-0.4-0.4-0.7-0.5c-0.6-0.1-0.6,0.1-0.7,0.6c-0.2,0.9-0.6,1.8-1.1,2.6c-1.9,3-5.8,5.7-6.2,9.5c0,0.4,0,0.8,0.1,1.2
		c0.1,0.6-0.2,0.6-0.7,0.8c-0.5,0.2-1.1,0.2-1.6,0.2c-0.5,0-0.4,0.2-0.6,0.6c-0.2,0.4-0.4,0.8-0.6,1.3c-1.1,2.3-2.5,4.4-4.2,6.4
		c-2.2,2.6-4.5,5.1-6.6,7.8c0.6,0.1,1,0.5,1.1,1.1c0.1,0.4,0,0.7,0,1.1c-0.3,0-0.6,0-1,0c-0.9-0.2-0.1-1.3-0.3-1.8
		c-0.3-0.8-0.8,0.4-1.1,0.7c-0.5,0.6-1.1,1.2-1.7,1.8c-1.3,1.2-2.8,2.1-4.2,3.3c1,0.9,0.2,1.9,0,3c0,0.3-0.1,0.6,0,0.8
		c0.5,0,1,0,1.5,0c0.8,0,1.7,0,2.5-0.1c3.3-0.2,6.6-0.6,9.8-1.6c-0.2,1.9-1.7,2.9-3.2,3.9c-0.7,0.5-1.3,1-1.8,1.6
		c-0.2,0.4-0.4,0.8-0.5,1.2c-0.2,0.7-0.8,0.8-1.4,1.2c-4.3,2.5-7.9,5.9-11.5,9.2c-3.6,3.4-7.3,6.7-11.7,9.1
		c-0.5,0.3-1.1,0.6-1.7,0.8c-0.3,0.1-0.6,0.3-0.9,0.4c-0.4,0.2-0.6,0.1-0.5,0.6c0.1,1.2-0.3,2.2-0.6,3.3c-0.1,0.5,1.1,0.5,1.5,0.6
		c0.6,0.2,1.2,0.3,1.8,0.5c0.5,0.2,1.1,0.4,1.6,0.8c0.2,0.2,0.4,0.3,0.6,0.5c0.5-0.2,0.9-0.3,1.4-0.5c2.2-0.8,4.3-1.7,6.3-2.8
		c0.4,3.2-3,2.8-5,3.9c0.4,0.5,0.6,1,0.4,1.6c-0.2,0.4-0.3,0.6-0.7,0.6c-0.5,0-1,0-1.5,0c-0.7,0-1.1,1.1-1.5,1.6
		c-0.5,0.6-1,1.2-1.5,1.8c-1.1,1.2-2.2,2.3-3.4,3.4c-1,0.9-2.3,2.1-3.6,2.4c-1.1,0.3-2.3,0.2-3.4,0.7c-0.7,0.3,0.2,1.5-0.5,2
		c-1.2,0.9-4,0.2-3,2.5c-0.6-0.7-2.1-1.3-3-1.1c-0.6,0.1-1,0.5-0.9,1.1c0.1,0.6,0.8,0.7,1.1,1.2c-2,0-3.5,1.6-5.5,1.7
		c13.2-15.6,20.7-38,14.7-58.1c-0.4-1.2-0.8-2.5-1.3-3.7c-0.2-0.6-0.5-1.2-0.8-1.8c-0.1-0.3-0.3-0.6-0.4-0.9c-0.2-0.4,0-0.4,0.3-0.7
		c1.6-1.5,3-3.1,4.2-5c1-1.6,2.1-3.6,1.7-5.5c-0.1-0.6-0.3-0.7,0.1-1.2c0.4-0.5,0.7-1,1-1.5c0.7-1.1,1.2-2.3,1.7-3.5
		c1.8-4.8,1.8-10.1,1.5-15.2c-0.4-5.3-0.7-10.7-2.4-15.7c-3.4-9.9-9.9-18.1-16-26.4c-0.7-1-1.4-2-2.1-2.9c-0.2-0.2-0.4-0.5-0.5-0.7
		c0.2-0.3,0.4-0.5,0.6-0.8c0.4-0.6,0.8-1.2,1.3-1.9c1.5-2.3,2.9-4.6,4.2-7c2.7-5,4.9-10.2,6.7-15.5c1-2.8,1.8-5.7,2.6-8.5
		c0.2-0.7,0.1-1-0.2-1.7c-0.2-0.4-0.5-0.9-0.8-1.3c-0.4-0.8-0.9-2,0.2-2.3c1-0.3,1-0.6,1-1.6c0-1.3,0-2.7,0-4
		c-0.1-2.7-0.3-5.3-0.6-8c-1.2-10.3-4.1-20.9-9.6-29.7c-0.2-0.4-0.5-0.8-0.8-1.2c-0.2-0.4-0.6-0.1-1-0.3c-0.7-0.3-1.1-0.7-2-0.5
		c0-0.9,0.5-1.4,1.1-2.1c0.8-0.9,0.6-2,0.6-3.2c-0.1-2.8-0.3-5.6-0.6-8.3c-0.6-5.2-1.7-10.3-3.2-15.3c-2.8-9.1-7.4-17.5-13.3-25
		c-1.7-2.2-3.6-4.3-5.5-6.3c-1-1-2-2-3.1-3c-0.5-0.5-1-0.9-1.6-1.4c-0.7-0.6-1.7-0.3-2.6-0.3c3.5-2.9,7.5-5,11.1-7.8
		c3.9,10.7,8,21.3,11.9,32.1c1,2.7,2,5.4,2.9,8.2c0.2,0.6,0.4,1.2,0.7,1.9c0.4,0.1,0.8,0.3,1.1,0.6c0.5,0.5,0.9,1.2,1.5,1.7
		c0.3,0.2,0.6,0.4,1,0.5c0.5,0.1,0.9-0.5,1.1-0.8c0.6-0.7,1.1-1.5,1.6-2.2c1.1-1.5,2.3-3,4.1-3.6c2.4,8.5,8.9,14.8,12.1,22.9
		c1.2,3.2,2.1,6.5,3.6,9.6c1.3,2.7,3.3,5.3,6.4,5.7c-4.1,14.8-10.6,28.7-15.5,43.2c3.1-7.7,7.1-15,10.7-22.5
		c3.8-7.7,7.2-15.7,9.2-24.1c3,3.6,4.5,8.2,6.2,12.5c0.8,2.2,1.7,4.4,2.9,6.5c0.5,0.9,1.1,1.9,1.7,2.7c0.3,0.4,0.7,0.8,1,1.2
		c0.2,0.2,0.4,0.4,0.5,0.6c0.3,0.3,0.4,0.3,0.2,0.7c-0.6,1.8,0.6,3.8,1.2,5.4c0.3,0.9,0.6,1.8,0.5,2.7c0,0.4-0.1,0.9-0.3,1.3
		c-0.2,0.4,0.9,1.3,1.2,1.7c2.8,4.1-0.2,8.9-2,12.7c-3.2,6.9-6.5,13.9-8.7,21.2c2.5-2.7,3.1-6.6,5-9.6c1-1.5,2.3-2.8,4-3.4
		c0.4-0.2,1.1-0.1,0.8-0.7c-0.2-0.3-0.5-0.6-0.5-1c0-0.4,0.8-0.2,1.2-0.4c0.4-0.2,0.7-0.7,0.9-1.1c5.2-7.9,6.6-17.6,9.5-26.5
		c1.9,2.4,2.6,5.7,3,8.7c0.4,3.7,0.4,7.4,0.5,11.1c0,1.8,0.1,3.6,0.3,5.3c0.1,0.8,0.2,1.6,0.3,2.4c0.1,0.4,0.1,0.8,0.2,1.1
		c0.1,0.4,0.2,0.5-0.1,0.9c-1.5,1.6-1.3,6,1.4,6.4c-3.4,2-3.1,6.7-2.2,10c-2,0.1-3.7,1.3-4.5,3.1c-0.4,0.8-0.5,1.6-0.5,2.5
		c0,0.4,0.1,0.8,0.2,1.2c0.1,0.2,0.1,0.4,0.2,0.6c0.2,0.4,0.2,0.4-0.2,0.8c-1.6,2.1-3.4,4.1-5,6.2c-1.5,2-3,4.2-3.5,6.6
		c9.3-10.6,17-22.4,26-33.2c-0.4,4.9-0.3,9.8-0.9,14.7c-0.6,5-2.3,9.6-4.3,14.2c-0.8,2-1.7,3.9-2.3,6c-0.3,1-0.2,1.9-0.1,2.9
		c0.1,1.2-0.1,2.3-0.6,3.4c-0.6,1.3-1.6,2.4-2.4,3.6 M126.2,76.8c1.9-1,3.6-2.2,5.4-3.2c1.6-0.9,3.7-2.1,5.6-1.8
		c-0.2-0.8-0.7-1.3-0.6-2.2c1-0.5,1.9-0.9,2.9-1.4c1.9-1,3.7-2.1,5.6-3.2c3.7-2.3,7.2-4.7,10.8-7.1c7.3-4.8,14.9-9.5,23.3-12.1
		c-0.5-0.8-0.9-2,0.6-1.7c0.8-0.7,2.9-1.5,3.3,0c0-0.7,0-2.1,0.8-2.3c0.9-0.3,1.8-0.6,2.7-1c1.6-0.7,3.1-1.5,4.6-2.4
		c3.1-1.8,6.1-3.7,9.5-4.7c0.9-0.3,1.8-0.5,2.7-0.6c0.5-0.1,1.1,0,1.5-0.3c0.3-0.3,0.7-0.6,1.1-0.9c1.8-1.3,3.9-2.1,6-2.8
		c2-0.7,4-1.4,6.1-2c1.5-0.4,3.4-1.1,5-0.8c-5.2,2.5-10,5.8-14.5,9.4c-2.2,1.7-4.4,3.5-6.6,5.4c-2.1,1.8-4.3,3.5-6.3,5.4
		c-1,1-1.9,2-2.9,2.9c-0.5,0.5-0.9,0.9-1.4,1.3c-0.4,0.4-1,1-1.6,1.2c-1,0.3-1.6-0.5-2.5,0.3c-1,0.9-1.9,1.9-2.7,3
		c-0.8,1-1.4,2.1-2.1,3.2c-0.3,0.5-0.6,1-0.9,1.6c-0.1,0.2-0.3,0.5-0.4,0.7c-0.5,0-1,0-1.5,0c-3.1,0-6.2,0.3-9.2,0.8
		c-7.7,1.2-15.3,3.5-22.5,6.4c8-0.4,15.8-2,23.8-2.7c9.2-0.9,18.7-1.2,27.7,1c-0.7,1.9-2.8,2.5-4.4,3.5c-0.8,0.5-1.4,1.2-1.7,2
		c-1.2,0.8-2.4,1.6-3.6,2.4c-4.9,3.1-10.1,5.8-15.2,8.7c-4.9,2.8-9.8,5.6-14,9.3c-3.6,3.3-7.1,7-12,8.4c-2.8,0.8-5.8,0.3-8.6,0.4
		c-3,0.2-6,0.9-8.9,1.7c-6,1.6-11.7,4-17.5,6.1c-1,0.4-2.6,1.4-3.7,1c-0.8-0.2-1.3-0.9-2-1.3c-1-0.5-2-0.2-3,0
		c-1.4,0.2-2.8,0.4-4.2,0.6c-5,0.6-10.5,1-15,3.6c6.5-0.4,12.9-0.8,19.3-1.7c-7.5,9.5-20.4,12-28.7,20.5
		c10.5-5.5,21.3-10.5,30.8-17.6c0.6-0.4,1.1-0.8,1.6-1.3c0.5-0.4,1-1,1.6-1.2c1.3-0.4,2.7-0.8,4-1.1c2.6-0.7,5.3-1.4,7.9-2.1
		c5.5-1.3,11.2-2.4,16.8-3c8.3-0.9,16.8-0.9,25.1,0.2c-9.3,7.3-19.6,13-29.1,20c-2.3,1.7-4.6,3.5-6.8,5.4c-2.2,0.1-4.4,0.2-6.7,0.3
		c-4.8,0.2-9.6,0.5-14.3,1.4c-5.3,0.9-11.1,2.6-15,6.6c7.6-1.6,15.2-3.2,22.9-4.1c8-0.9,16.4-1,24.1,1.3c-4.2,2.1-7.3,5.8-12,6.9
		c-0.6,0.2-1.2,0.2-1.7,0.5c-0.5,0.3-1,0.5-1.5,0.8c-1.1,0.7-2.1,1.4-3.2,2.1c-2.1,1.5-4.1,3.1-6.3,4.6c-2.1,1.5-4.4,2.9-6.8,4
		c-2.6,1.2-5.3,1.7-8.1,2c-2.8,0.3-5.7,0.5-8.3,1.5c-2.6,1-5,2.4-7.3,4c-3.6,2.4-7,5.2-11,7.1c-0.8,0.4-1.5,0.2-2.3-0.1
		c-0.3-0.1-0.6-0.3-0.9-0.3c-0.7-0.1-1,0-1.4,0.5c-1.7,1.9-3.5,3.8-5.2,5.7c-6.8,7.2-14.3,14.2-19.7,22.6
		c8.5-8.4,17.6-16.1,25.1-25.4c0.2-0.3,0.4-0.6,0.7-0.8c0.3-0.4,0.4-0.3,0.8-0.3c0.6-0.1,1.2-0.2,1.7-0.3c1.2-0.2,2.4-0.5,3.5-0.8
		c2-0.6,4-1.4,6-2.4c3.7-1.8,7.3-4,11.2-5.5c3.6-1.4,7.4-2.1,11.3-2.1c-3.4,3.7-7.9,6.2-11.6,9.5c-0.9,0.8-1.8,1.6-2.6,2.5
		c-0.4,0.5-0.8,0.9-1.1,1.4c-0.2,0.2-0.4,0.5-0.5,0.7c-0.3,0.4-0.5,0.2-0.9,0.1c-1.1-0.3-2-0.6-3.1-0.4c-0.1,1.2-0.4,2.4-0.8,3.5
		c-0.7,1.7-1.9,3.2-3.9,3.6c-0.5,0.1-0.9,0.1-1.4,0.1c-0.1,0.6-0.1,1.2,0.1,1.7c0.1,0.5,0.6,0.9,0.2,1.2c-0.6,0.4-1.1,0.9-1.7,1.4
		c-0.9,0.9-1.9,1.7-3,2.3c-0.7,1.3-1.5,2.5-2.4,3.7c-1.7,2.2-3.7,4.3-5.4,6.5c-6.1,7.9-11.2,16.5-16,25.2c-2.4,4.4-4.8,8.8-7.3,13.2
		c-2.4,4.3-4.5,8.8-8.7,11.7c0.9-21.6,3.1-43.2,8.8-64.1c2.6-9.3,5.8-18.4,9.8-27.2c1-2.2,2.1-4.5,3.1-6.6c0.5-1.1,1.1-2.1,1.6-3.2
		c0.1-0.3,0.3-0.5,0.4-0.8c-0.1-0.2-0.2-0.5-0.3-0.7c-0.1-0.5-0.1-1,0-1.5c0-0.5,0-1-0.1-1.6c-0.1-0.4-0.3-0.6,0-0.9
		c0.2-0.3,0.4-0.5,0.6-0.8c0.8-1.2,1.6-2.4,2.4-3.5c1.6-2.2,3.3-4.4,5.3-6.2c1-0.9,2-1.7,3.1-2.4c0.7-0.6,1-1.5,1.4-2.3
		c0.4-0.7,0.8-1.5,1.6-1.9c0.6-0.3,1-0.1,0.8-0.8c-0.1-0.5-0.7-1-0.2-1.3c0.8-0.4,1.9-0.2,2.7-0.6c0.5-0.3,0.8-0.9,1.2-1.3
		c0.5-0.6,1-1.3,1.5-1.9c1.8-2.2,3.7-4.4,5.6-6.5c7.8-8.5,16.5-16.1,25.6-23.1c4-3,8-6,12.1-8.9c1-0.7,2.1-1.5,3.2-2.2
		c0.5-0.3,0.7-0.6,1.3-0.5c0.4,0.1,0.8,0.2,1.2,0.4c0.5,0.2,1.2,0.5,1.8,0.3c0.7-0.2,0.9-1.2,1-1.9
		C128.1,76.9,126.1,79.1,126.2,76.8C128.9,75.4,126.1,79.2,126.2,76.8z M210.4,344.4c-0.6,2.1-1.2,4.3-1.8,6.4
		c-5.2-3.7-10.2-7.7-15.3-11.6c-1.2-0.9-2.4-1.9-3.7-2.8c-0.9-0.7-2.2-1.2-1.4-2.5c0.3-0.4,0.8-1,0.1-1.3c-0.3-0.1-0.8,0.1-1.2,0.2
		c-0.5,0-1-0.1-1.5-0.2c-2.2-0.7-4.1-2.4-6-3.7c-0.9-0.7-1.9-1.4-2.9-2c-0.9-0.5-1.9-1-2.6-1.7c-1.4-1.3,0.4-3.3,1.3-4.4
		c1.8-2,4-3.8,6.1-5.5c5.1-4.4,9.7-9.3,14.3-14.2c8.8,10.1,15.8,22.9,16,36.5 M136.2,58c-9.8,3.3-18.7,8.5-27.2,14.3
		c-8.2,5.6-15.9,11.8-24.2,17.3c0.4-2.2,1.9-3.6,3.2-5.2c0.6-0.8,1.2-1.6,1.5-2.5c0.2-0.6,0.2-1,0.7-1.5c0.5-0.5,1-1,1.5-1.5
		c3.5-3.6,7-7.2,10.6-10.8c7-7.1,14.2-14,22-20.1C136.3,38.3,150,31,164.9,27c0.4,1.4-1.1,2.7-0.7,4.1c0.2,0.7,1.3,1.6,2,1.2
		c1.1-0.6,2.3-1.2,3.4-1.8c4.9-2.3,10.1-3.8,15.4-4.9c5.8-1.2,11.8-1.8,17.7-2c1.5,0,2.9-0.1,4.4-0.1c0.7,0,1.5,0,2.2,0
		c0.4,0,0.7-0.1,0.8,0.2c0.1,0.2,0.2,0.4,0.4,0.6c0.1,0.2,0.2,0.4,0.2,0.6c0,0.4-0.4,0.4-0.8,0.5c-0.7,0.2-1.4,0.4-2.2,0.6
		c-1.5,0.4-3.1,0.9-4.6,1.3c-22.2,6.5-42.8,17.1-63,28.3C138.9,56.4,137.5,57.2,136.2,58C115.5,64.9,159.1,45.1,136.2,58z
		 M164.4,440c0-4.4,0.3-8.9,0.3-13.3c0-2.4,0-4.7-0.1-7.1c0-0.6-0.1-1.2-0.1-1.9c0-0.5-0.4-1.6,0.2-1.6c0.7-0.1,1.1,0.4,1.8,0.4
		c0.7,0,1.2-1,1.6-1.4c0.7-0.7,1.5-1.4,2.3-2c1.6-1.2,3.3-2.2,5-3.3c3.5-2,7.1-4.1,9.5-7.5c-4.8,2.6-9.1,5.9-13.9,8.5
		c-1.2,0.6-2.4,1.2-3.6,1.8c-0.6,0.3-1.3,0.5-1.9,0.8c-0.3,0.1-0.7,0.2-1,0.4c-0.7,0.2-0.7,0.2-0.7,1c-0.1,3.2-0.2,6.3-0.4,9.5
		c-0.2,3.2-0.3,6.4-0.3,9.6c0,1.6,0,3.1,0.1,4.7c0,0.4,0,0.8,0,1.2c0,0.5,0.3,0.8-0.3,0.8c-0.8,0.1-1.6,0.1-2.3,0.1
		c-5.1,0.2-10.2-0.1-15.2-1.2c-13.3-2.8-24.6-11-31.3-22.8c5,0.9,9.7,2.9,14.4,4.7c5.1,1.9,10.2,3.9,15.6,4.9
		c2.6,0.5,5.2,0.7,7.8,0.5c1.2-0.1,2.9-0.1,3.9-0.9c0.2-0.2,0.4-0.4,0.4-0.7c0.1-0.7-0.3-0.6-0.9-0.6c-1.5,0.1-3.1,0.1-4.6,0.1
		c-2.7,0-5.3-0.3-7.9-0.7c-9.2-1.4-17.6-5.5-26.5-7.8c-0.5-0.1-1.1-0.3-1.6-0.4c-0.6-0.2-0.8-0.4-1.1-0.9c-0.6-1-1.2-2-1.7-3
		c-1.1-2.2-2-4.5-2.7-6.9c-1.4-4.8-2.2-10-1.8-15c0-0.4,0-1.4,0.4-1.4c0.5,0,1,0.1,1.4,0.3c1.1,0.3,2.1,0.8,3.1,1.3
		c1.5,0.8,3.5,2.1,5.3,1.7c0.4-0.1,0.7-0.2,1-0.5c0.4-0.3,0.5-0.8,0.9-0.4c0.5,0.5-0.1,0.9-0.4,1.2c-0.5,0.5-0.2,0.6,0.4,0.9
		c1.1,0.5,2.3,1,3.4,1.5c9.6,4.3,19.6,7.6,30.2,7.5c10.2-0.1,20.3-2.9,29.8-6.4c2.2-0.8,4.4-1.7,6.6-2.6c1-0.4,2-0.8,2.9-1.3
		c1-0.4,2.2-0.8,2.8-1.6c2.6-3.6,6.7-5.7,10.7-7.3c1.7,9.1,1.2,18.6-2.8,27.1c-3.4,7.5-9.2,13.6-15.8,18.3
		C180.4,433.5,172.5,437.1,164.4,440C164.4,431.7,187.9,431.7,164.4,440z M194.1,280.3c-4.3-3.8-10.9-10.3-17-12.5
		c9.5-12.8,18.8-25.8,25.4-40.4c1.1,6.3,1.7,12.8,1.4,19.2c-0.1,2.9-1.8,14.6-4.8,21.7 M167.1,379.1c-1.1,0.5-0.3,1.7-0.1,2.6
		c0.2,1.1-1.4,0.8-1.8,0.1c-0.9-1.8,0.6-4.9-2.6-4.9c2.2-2.7,0.7-7.7-1.5-10.1c-0.4-0.4-0.9-0.9-1.5-1c-0.5-0.1-0.4,0.1-0.4,0.5
		c0,0.5,0.1,1,0.1,1.5c0.3,2.2,0.8,4.4,1.3,6.7c0.4,2.3,0.8,4.7,0.5,7c-0.1,0.5-0.1,1-0.3,1.5c-0.7,0.1-1.5,0.2-2.2,0.3
		c-1.5,0.2-3.1,0.3-4.7,0.4c-5.4,0.2-10.8-0.4-16-1.8c-6.8-1.9-13.2-5.1-19.1-8.8c-1.4-0.1-1.6,1.1-2.4,1.8
		c-0.3,0.3-1.5,0.7-1.4,0.1c0.1-0.7,0.3-1.3,0.7-1.8c1-1.3,4.3-1.9,3.2-4c5.7,1.5,11.3,3.5,17,5c5.5,1.4,11.6,2.6,17.3,1.1
		c-4.4-3.2-10.7-1.4-15.7-2.2c-5.7-0.8-10.7-4.1-16.4-5c11.8-12.5,25.1-23.5,39.2-33.2c0.3,3.3,0.6,7,2.2,10
		c0.4-0.9,0.1-2.3,0.1-3.2c0-1.1-0.1-2.7,0.7-3.5c0.8-0.8,1.3-0.1,2,0.5c1,0.8,2,1.5,3,2.3c2,1.5,4.1,2.9,6.2,4.4
		c1,0.7,2.1,1.4,3.1,2.2c0.5,0.3,0.1,0.8-0.1,1.3c-0.2,0.4-0.4,0.8-0.7,1.3c-0.9,1.6-2.2,2.9-3.5,4.2c-2.6,2.5-5.6,4.7-7.5,7.9
		c0.5,0,0.7,0.5,1.1,0.6c0.6-0.3,1.2-0.7,1.7-1.1c1.1-0.8,2-1.7,2.9-2.8c1.7-2,3.1-4.2,4.7-6.2c0.8-1,1.6-1.9,2.4-2.8
		c0.3-0.3,0.3-0.5,0.7-0.2c0.4,0.2,0.9,0.5,1.3,0.7c0.7,0.4,1.5,0.9,2.2,1.4c2.8,1.8,5.5,3.7,8.3,5.5
		C184.6,365.6,177.1,374,167.1,379.1C165.3,380,177.4,373.8,167.1,379.1z M203.1,365.6c0.4,0.5,0.6,0.6,0.2,1.2
		c-0.3,0.4-0.7,0.7-1,1.1c-0.7,0.8-1.5,1.5-2.4,2.2c-1.7,1.4-3.5,2.6-5.3,3.6c-7.7,4.3-16.6,6.3-25.2,8.2
		c8.3-7.6,17.2-14.7,23.8-23.8 M157.7,190.8c-5.4,0.5-10.6,3.6-16,2.8c-0.1,1.4-1.6,1.6-2.7,1.6c-0.6,0-1.3,0-1.9,0
		c-0.4,0-0.4,0-0.7-0.4c-0.2-0.4-0.4-0.8-0.6-1.2c-1.5-3.2-1.9-7.4-4.6-10c0.1,2.3,1,4.4,2.1,6.4c0.5,0.9,0.9,1.9,1.2,2.8
		c0.2,0.5,0.3,1.1,0.4,1.6c0.1,0.3,0.1,0.6,0.1,0.9c0,0.5,0.3,0.9-0.3,1c-5.2,0.7-10.3,2.2-15.1,4.5c-8.5,4.1-15.5,10.4-22.6,16.5
		c-0.4,0.4-0.8,0.7-1.3,1.1c-2.2-5-4.7-9.9-6.8-14.9c-2.1-5.2-3.9-10.7-3.8-16.3c0-1.2,0.1-2.4-0.1-3.5c-0.1-0.5-0.2-1-0.4-1.5
		c-0.1-0.2-0.2-0.5-0.4-0.7c-0.3-0.4,0.3-0.7,0.6-1c2.2-2.1,4.4-4.2,6.7-6.2c4.5-4,9.3-7.9,14.2-11.5c1.1-0.8,2.2-1.6,3.3-2.4
		c0.5-0.4,1-0.7,1.5-1.1c0.6-0.4,1.2-0.6,1.2-1.3c0-1.5,0.8-2.8,2-3.7c2.7-2.2,6.2-2.8,9.1-4.7c0,1.6,0,3.2,0,4.7
		c0,0.9,0.3,1.3,0.7,2c0.4,0.7,0.8,1.4,1.2,2.1c1.3,2.6,2.3,5.4,3.3,8.2c1.9,5.6,3.6,11.3,7,16.2c-3.2-8.7-5.8-17.6-8.3-26.6
		c3.6,1,1.8,6.9,5.5,7.8c-3-4.8-4.4-10.6-5.5-16.1c4-2.1,8.3-3.8,12.8-4.8c7.9-1.8,16.3-1.6,24,1c15.7,5.3,26.6,19.4,29.8,35.5
		c1.2,6,1.4,12.1,0.8,18.1C182.9,193.2,170.2,189.6,157.7,190.8C151.8,191.4,170.9,189.5,157.7,190.8z M107.7,230
		c0.2-0.5,0.5-1.1,0.8-1.6c1.2-2.2,3-4,4.9-5.5c3.6-2.8,8.8-4.9,13.4-3.2c0-0.9-1-0.9-1.6-1.4c-1.2-1.3,1.4-2.2,2.2-2.6
		c3.4-1.6,7-2.5,10.6-3.5c0.9-0.2,1.9-0.5,2.8-0.7c0.7-0.2,1.3,0.9,1.7,1.4c0.9,1.3,1.7,2.7,2.3,4.1c1.3,2.9,2.4,6,4.1,8.8
		c0.8-4.5-3-8.5-4.2-12.6c-0.3-0.9-0.4-1.9-0.3-2.9c1.2-0.3,2.4-0.6,3.6-0.9c2.5-0.6,5-1,7.5-1.3c10.3-1.4,21.2-1.4,31.4,0.9
		c1.7,0.4,3.3,0.8,4.9,1.4c0.3,0.1,0.7,0.2,1,0.4c0.5,0.2,0.1,1,0.1,1.4c-0.2,1-0.4,1.9-0.6,2.9c-0.9,3.7-2.4,7.2-4.1,10.6
		c-3,6.1-7,11.8-9,18.4c-0.1-0.5-0.6-0.6-1.1-0.6c-5,7,0.6-0.1,0,0c-2.7,3.9-5.1,8-7.9,11.8c-1.4,1.8-2.8,3.6-4.5,5.2
		c-0.8,0.8-1.7,1.5-2.6,2.2c-0.3,0.2-0.5,0.4-0.8,0.5c-0.4,0.2-0.2,0.1-0.5-0.1c-0.3-0.2-0.7-0.3-1-0.4c-0.6-0.2-1.4-0.3-1.8-0.8
		c-0.6-0.9,0.6-1.9,1.1-2.6c1.5-2,3.1-3.9,4.6-5.9c3.1-3.9,5.9-8.1,7.8-12.8c-5.4,5-8.1,12.5-14.4,16.6c-1.4-5.8-2.8-11.6-4.9-17.1
		c-1-2.6-2.1-5.1-3.5-7.5c-0.2-0.3-0.3-0.5-0.5-0.8c0.2-0.2,0.3-0.5,0.4-0.8c0.2-0.5,0.4-1.1,0.4-1.7c0-0.3,0-3.1-0.7-2.4
		c-0.3,0.3-0.1,1-0.2,1.3c0,0.2-0.1,0.4-0.4,0.4c-0.2,0-0.3,0-0.5-0.1c-0.4-0.1-0.8-0.1-1.2-0.1c-2.4-0.1-4.7-0.7-6.9-1.7
		c-3.8-1.6-7.2-4.4-11.2-5.6c-0.7-0.2-1.3-0.4-2-0.4c3.8,2.8,8,4.9,12.3,6.8c2.2,1,4.5,2,6.8,3c0.5,0.2,1.1,0.5,1.6,0.7
		c0.7,0.3,0.9,0.4,1.1,1.1c0.3,1.1,0.7,2.2,1,3.3c2.9,8.4,6.5,16.5,7.1,25.5c-19.7-6.6-36.1-14.6-51.2-29 M183.2,294.9
		c-2.9,3.9-6.7,7.1-10.5,10.2c-2,1.6-3.9,3.1-5.8,4.8c-0.9,0.8-1.8,1.6-2.6,2.4c-0.3,0.3-1.1,0.8-0.8,1.2c0.2,0.2,0.4,0.3,0.6,0.5
		c0.5,0.3,0.8,1.5,0,1.5c-0.5,0-0.8,0.3-1.2,0.5c-0.7,0.3-0.8,0-1.1-0.6c-0.9-2-1.4-4.1-1.8-6.2c-0.8-4.1-1.1-8.9-3.4-12.5
		c0.7,4.8,1.5,9.5,1.7,14.4c-3.8-0.4-7.4-1.9-10.8-3.7c-2.8-1.5-5.6-3.4-8.6-4.6c4.4-3.2,8.4-7,12.7-10.2c1.1-0.8,2.2-1.6,3.3-2.3
		c0.5-0.3,3.1-2.1,3.4-1.7c1.1,1.1,0.3,3.8,2.1,4.3c-0.9-2.6-0.8-5.2,1.1-7.3c1.6-1.7,3.8-2.9,5-4.9
		C172.3,285,179.9,288,183.2,294.9 M169.5,134c-3.4-1.6-7.1-2.2-10.8-2.9c-4.3-0.8-8.3-0.8-12.6,0.2c-4.3,1-8.8,1.1-13.2,0.4
		c10.7-9.5,22.4-17.8,35.4-23.8c2.5,10.7,7.5,20.6,12.2,30.5 M168.2,102.8c-4.5-1-9.2-2-13.8-1.1c3-5.4,8.6-8.2,13.8-11.1
		c-0.2,2.3,0,4.6,0.2,6.8C168.5,99.2,168.8,101.1,168.2,102.8C163.3,101.7,169,100.2,168.2,102.8z M86.4,350.4
		c-0.2,0.8-0.6,1.6-0.9,2.3c-0.3,0.8-0.7,1.7-0.5,2.5c0.2,0.9,1.3,0.7,2,0.5c-0.6,4.7,1.2,9.7,3.6,13.7c1.3,2.2,2.9,4.4,4.7,6.2
		c-0.6,0.8-1.6,1.1-2.3,1.9c-0.9,1-1.1,2.7-1.4,3.9c-2.8,10.8-2.1,22.5,1.4,33c1.5,4.4,3.4,9,6.3,12.7c3.1,3.9,7,7,11.1,9.8
		c4.6,3.1,9.4,5.7,14.4,8.1c2.5,1.2,5.1,2.3,7.6,3.4c2.9,1.3,5.7,2.6,8.6,3.6c3.4,1.2,6.8,1.9,10.5,1.9c3.4,0,6.8-0.5,10.2-0.9
		c1.5-0.2,3-0.4,4.5-0.4c0.4,0,0.8,0,1.2,0c0.5,0,0.4,0.3,0.4,0.8c0,0.5-0.2,0.9-0.5,1.3c-0.5,0.6-1.4,0.9-1.7,1.6
		c-0.3,0.7,0.1,0.9,0.3,1.6c0.2,0.8,0.2,1.7,0.1,2.5c0.7-0.1,1-0.9,1.7-1.1c-0.4,7.6,0.1,15.2-1.1,22.7c0.6,0,1.1,0,1.7,0
		c-5,9.7-5.8,21-10,31c-0.9,2.1-2.8,3.6-3.8,5.8c-0.5,1.1-0.9,2.3-1,3.5c-0.2,1.4-1.3,2.7-2.1,3.9c-3,4.7-6.3,9.2-9.9,13.5
		c-5.1,6.1-10.7,11.8-16.8,17c-1.5,1.3-3.1,2.6-4.7,3.8c-0.8,0.6-1.6,1.2-2.4,1.8c-0.4,0.3-0.7,0.6-1.1,0.7c-0.5,0.1-1,0.3-1.6,0.4
		c-3.5,1.2-6.3,3.7-9.7,5c0.4-4.8,1.6-9.5,2.2-14.3c0.3-2.4,0.5-4.8,0.3-7.2c-0.1-1-0.3-2-0.6-3c-0.1-0.5-1.2-2.2-0.6-2.5
		c0.2-0.1,0.8,0.9,1,1c0.5,0.4,0.4-0.2,0.4-0.6c0-0.8,0-1.6,0-2.4c0-2.9,0.2-5.8,0-8.7c-0.1-1.3-0.2-2.5-0.4-3.7
		c-0.1-0.4-0.2-0.5,0.1-0.7c0.2-0.1,0.5-0.3,0.7-0.4c0.6-0.3,1.1-0.7,1.7-1c2-1.2,3.9-2.5,5.8-3.8c15.4-11.2,25.8-27.8,31.5-45.8
		c1.6-4.9,2.8-9.9,3.7-14.9c0.1-0.6,0.2-1.2,0.3-1.9c0.1-0.3,0.1-0.6,0.2-0.9c0.1-0.5,0-0.3-0.4-0.5c-0.4-0.2-0.7-0.5-1.1-0.7
		c-0.2-0.1-0.4-0.2-0.7-0.2c-0.5-0.1-0.6-0.1-0.6,0.4c0,0.9,0.2,1.9-0.1,2.7c-0.1,0.3-0.4,0.6-0.8,0.7c-0.3,0.1-0.6-0.7-1-0.9
		c-0.6-0.3-1.3,0-1.9,0.2c-1.1,0.3-2.1,0.4-3.2,0.1c-2.8-0.8-5.6-1.7-8.4-2.6c-5.3-1.9-10.6-4-15.6-6.5
		c-9.7-4.7-18.9-10.3-27.9-16.4c-4.4-3-8.7-6-13-9.1c-2.1-1.5-4.3-3.1-6.4-4.6c-1-0.7-2.1-1.5-3.1-2.2c-0.5-0.4-1-0.7-1.6-1.1
		c-0.5-0.4-1.4-0.8-1.7-1.3c-2.9-4.9-8.3-7.5-11.6-11.9c-0.9-1.2-1.6-2.5-2.1-3.9c1.1-0.9,2.6-1.1,4-1.2c2.7-0.2,6,0.5,8.2-1.6
		c-0.8-0.7-1.6-0.5-2.5-0.7c-0.8-0.2-1-1.2-0.3-1.6c0.7-0.4,0.9-0.8,0.6-1.6c-1,0-2-0.3-2.9-0.8c-2.8-1.5-3.9-5.3-7-6.2
		c-0.4-0.1-0.7-0.2-1.1-0.2c-0.1-0.3-0.1-0.6,0.1-0.9c0.3-0.4,1-0.4,1.1-1c0.3-1.4-0.9-0.8-1.6-0.5c-0.8,0.3-0.9-0.2-1.3-0.8
		c-0.3-0.6-0.6-1.2-0.9-1.8c-0.4-0.9-1.3-1.2-2.1-1.9c-0.8-0.7-1.5-1.5-2.2-2.4c-1.3-1.7-2.3-3.6-3.3-5.5c-1.4-2.6-2.8-5.3-4.9-7.4
		c-0.5-0.5-1-0.9-1.5-1.3c-0.4-0.3-0.6-0.3-0.7-0.8c-0.2-0.6-0.4-1.1-0.6-1.7c-0.8-1.9-1.7-3.6-2.8-5.4c-0.9-1.5-1.9-2.8-1.8-4.7
		c0-1.1,0.4-2.6-1.1-2.9c-1.3-0.2,0.8-1.8,0.9-2.2c0.2-0.9-0.8-0.6-1.4-1c-0.6-0.4-0.8-1.1-0.8-1.8c2.1,0.4,3.7,1.7,5.5,2.8
		c0.7,0.4,1.5,0.8,2.3,0.8c0.6,0,2.8-0.3,2.5-1.1c-0.5-1.1-0.6-2.4-1-3.6c-0.9-0.9-1.7-1.9-2.5-2.9c-1.6-2-3-4.1-4.2-6.3
		c-5.4-9.5-8.5-20.1-11.5-30.6c-0.5-1.7-1-3.5-1.5-5.2c-0.3-0.9-0.5-1.7-0.8-2.6c-0.5-0.1-1.6,0.1-1.7-0.6c6,0,11.2,3.4,17.1,3.9
		c-0.9-10.7-6.1-20.7-5-31.6c-0.4,0.4-1.1,0.7-1.7,0.3c-0.7-0.5-0.6-1.4-0.5-2.1c0.1-0.9,1.4,0.4,1.7,0.6c0.9,0.4,0.7-2.7,0.7-3.1
		c-0.1-0.9-0.4-1.7-0.6-2.5c-0.2-0.5-0.4-0.4-0.7-0.1c-0.3,0.3-0.6,0.7-1,0.8c-0.1-1.1-0.2-2.6,0.6-3.5c0.3-0.4,0.9-0.6,1,0.1
		c0.1,0.3-0.2,0.6-0.3,0.9c-0.5,1,1.3,1,1.8,1.1c1.1,0.3,2.2,0.8,3.1,1.5c3.5,2.6,5,7,8.3,9.8c0.6-1.9-0.1-3.9-1-5.6
		c-0.5-0.9-1.1-1.7-1.7-2.4c-0.4-0.5-1.5-1.3-1-2c0.3-0.4,0.9,0.3,1.1,0.4c1,0.6,1-0.4,1.2-1.2c0.5-2.2,1.1-4.4,1.9-6.5
		c3.4-8.9,8.9-16.8,13.8-24.9c8.6,8.6,18.6,15.5,28.7,22.1c-0.6,9.6,0.5,19.5,4.5,28.4c5.5,12.3,15.8,21.4,27.6,27.5
		c-3.3,3-6.5,6-9.6,9.1c-1.5,1.6-3,3.2-4.5,4.9c-0.7,0.8-1.4,1.7-2.1,2.6c-0.4,0.6-0.5,0.9-0.4,1.6 M105.2,88.4
		c-2.2,1.6-4.7,2.9-7,4.4c-2.3,1.4-4.3,3-6.2,5c-4,4.1-7.8,8.4-11.7,12.5c-1.9,2-3.8,4-5.8,6c-1.7,1.6-3.6,3.1-5.2,4.8
		c-1.8,2-3.6,4.1-5.5,6.1c-2,2.1-4,4.4-5.7,6.8c-1,1.4-1.9,2.8-2.6,4.4c0-2.3,0-4.6,0.4-6.9c0.4-2,1.1-4.7,3.4-5.3
		c-2.9-0.7-1.3-4.4,1.1-4.4c-1.1-0.6-0.8-1.2-0.1-1.9c0.8-0.9,1.5-1.8,1.2-3.1c0.8-0.1,1.4,0.6,2.2,0.6c-0.1-3.7,2.2-5.7,5.5-6.6
		c-0.4-0.5-1.1-0.3-1.5-0.7c-0.6-0.7,0.3-1.3,1-1c0.4,0.2,0.5,0.7,0.8,1c0.2,0.2,0.5,0.3,0.7,0.2c0.4-0.1,0.6-1,0.7-1.3
		c0.7-1.8,1.7-3.8,3.5-4.8c0.4-0.2,0.8-0.4,1.3-0.5c0.5-0.1,0.5,0.3,0.6,0.7c0.4,0.9,1,1.1,1.9,0.9c-0.9-1.3-2.2-2.2-3.3-3.3
		c0.5-0.3,1-0.9,1.7-0.8c0.2,0,0.5,0.1,0.7,0.2c0.5,0.2,0.4,0,0.6-0.4c0.3-0.5,0.6-0.9,1-1.3c1.4-1.7,3.2-3,5-4.2
		c1.8-1.3,3.7-2.4,5.3-3.9c0.8-0.7,1.6-1.5,2.2-2.4c0.4-0.6,0.6-0.9,1.3-1.3c0.7-0.4,1.3-0.8,2-1.2c5.1-3,10.1-6.3,15.1-9.6
		c2.5-1.7,5-3.4,7.5-5c1.3-0.8,2.5-1.7,3.8-2.5c0.6-0.4,1.3-0.8,1.9-1.2c0-0.5-0.5-0.7-0.6-1.1c3.5-0.4,6.8-1.9,9.9-3.4
		c1.6-0.8,3.3-1.7,4.9-2.6c0.8-0.4,1.6-0.9,2.3-1.3c0.6-0.4,1.4-1.1,2.2-0.8c0.9,0.3,1.7,1.3,2.5,0.4c0.3-0.3,0.7-1.8-0.1-1.3
		c-0.7,0.4-0.7-0.1-0.6-0.8c1.3-1.3,2.6,0,3.3,1.1c4.4-4.8,11-6.9,16.6-10c0.1,0.9-0.1,1.7-1,2c-0.4,0.1-0.9,0.2-1.3,0.2
		c-0.2,0-0.5,0-0.7,0c-0.4,0-0.7,0.4-1,0.6c-2,1.8-4.2,3.3-6.4,4.8c-4.5,3-9.3,5.6-13.9,8.5c-2.3,1.4-4.5,2.9-6.7,4.5
		c-1,0.8-2,1.6-3,2.4c-0.5,0.4-0.9,0.8-1.4,1.3c-0.7,0.3-1.4,0.6-2.1,0.9c-4.8,2.1-9.7,4.5-13.1,8.5c-0.5,0.5-0.9,1.1-1.3,1.7
		c0.4,0.1,1.1,0,1.1,0.6C109.2,82.7,107.3,86.9,105.2,88.4C101.5,91.1,108,86.4,105.2,88.4z M125.1,297.1
		c-7.2-5.6-14.5-11.4-19.8-19c-2.8-3.9-5-8.3-6.5-12.9c-0.4-1.2-0.7-2.4-1-3.6c-0.2-0.6-0.3-1.3-0.4-1.9c-0.1-0.4-0.6-1.9-0.1-2
		c0.9-0.1,1.7,0.3,2.4,0.8c0.4,0.3,1.2,1,1.7,0.5c0,0,0.1-0.1,0.1-0.1c-1.9-0.6-3.8-1.7-4.6-3.6c-0.7-1.6-0.7-3.4-0.4-5
		c0.1-0.9,0.3-1.7,0.6-2.6c0.1-0.4,0.2-0.8,0.3-1.3c0.2-0.7,0.2-0.9,1-0.9c1.9,0.1,2.2,2,3.6,2.8c8.5,6.9,17.8,12.7,27.7,17.5
		c6.6,3.2,13.4,5.8,20.4,8c-5.6,9.4-16.1,13.8-23.8,21 M126.2,294.9 M139.5,332.6c-4,3.2-9.1,4.8-12.6,8.7c-1.4,1.6-2.9,3.8-5,4.5
		c-2,0.6-4.3-0.3-6-1.1c-2.3-1.1-4.4-2.4-6.4-3.8c-0.9-0.6-1.8-1.2-2.7-1.8c-0.3-0.2-0.4-0.2-0.4-0.6c0-0.3,0.1-0.6,0.2-0.9
		c0.1-0.7,0.3-1.4,0.5-2c1.4-4.8,4.3-8.9,7.7-12.5c2.3-2.4,4.8-4.6,7.3-6.6c1.2-1,2.5-1.9,3.7-2.8c0.5-0.3,0.5-0.3,1.1-0.1
		c0.4,0.2,0.8,0.3,1.2,0.5c0.9,0.3,1.8,0.7,2.8,1.1c6.3,2.4,12.9,5.4,17,11c-1.8,0.4-3.3,1.3-4.6,2.7
		C142,330,140.9,331.4,139.5,332.6C136.4,335.1,142.8,329.9,139.5,332.6z M108.5,360.8c-3.8-6.1-3.3-13-3.3-19.9
		c5,1.5,9.2,4.9,14.4,6.1C117.3,352.7,111.4,355.6,108.5,360.8C104.8,354.8,111.5,355.5,108.5,360.8z M80.5,237.1
		c-0.6,3.2-0.6,6.5-1.3,9.7c-9.3-5.4-18.7-11.3-25.2-20c-0.4-0.5-0.8-1-1.1-1.6c-0.2-0.3-0.4-0.5-0.5-0.8c-0.3-0.4,0-0.5,0.2-0.9
		c0.8-1.3,1.7-2.6,2.5-3.9c1.6-2.5,3.2-5,4.8-7.5c3.2-4.9,6.6-9.7,10.6-14c2.3,11.4,7.3,22.5,13.8,32.1"/>
	<path class="st1" d="M140.6,509.7c-0.4,2.5-1.6,5-2.7,7.2c-0.6,1.3-1.4,2.5-2.1,3.7c-0.3,0.5-0.7,1.1-1.1,1.6
		c-0.3,0.4,0,1.3-0.1,1.9c-0.2,1.9-1.5,3.3-2.7,4.6c-1.1,1.2-2.2,2.5-1.7,4.3c-1.9,0.4-2.7,2.1-2.8,3.9c3.7-4.6,8.3-8.5,11.1-13.8
		c2.4,2.6-3.3,4.2-1.1,6.6c3.4-4.5,6.5-9.3,8.6-14.6c2.1-5.1,4.6-10.1,6.8-15.2c4.8-10.7,8.9-22,10.2-33.7c0.2-2.1,0.1-4.3,0.4-6.4
		c0.2-1.3,0.9-2.9,0.3-4.2c-0.2-0.4-1.2-1.5-1.6-1.1c-0.4,0.3-0.7,0.8-1.1,1.2c-1,1.2-2.3,1.4-3.8,1c-0.2,1.1,0.1,2,0.6,2.9
		c0.2,0.3,0.6,0.8,0.4,1.2c-0.3,0.5-0.6,1-0.9,1.6c-0.5,1-1,2.1-1.1,3.2c0,0.6,0,1.1,0.2,1.7c0.2,0.4,0.3,0.4,0.2,0.9
		c-0.1,0.5-0.2,0.9-0.3,1.4c-1.4,5.7-3.1,11.2-5.2,16.7c-3.9,10.1-9.1,19.7-15.1,28.8c-0.8,1.2-1.6,2.5-2.5,3.7c1.8,0,3-2.2,3.8-3.5
		C138.2,513.3,139.1,511.2,140.6,509.7C140,513.2,138,512.1,140.6,509.7z"/>
	<path class="st1" d="M163.3,145.4c-1.5,0.1-2.8,5.3-1.7,4.4C161.5,147.7,163.6,147.8,163.3,145.4z"/>
</g>
</svg>
